<mxfile host="app.diagrams.net" agent="Mozilla/5.0 (Windows NT 10.0; Win64; x64) AppleWebKit/537.36 (KHTML, like Gecko) Chrome/128.0.0.0 Safari/537.36" version="24.7.16">
  <diagram name="Page-1" id="wJGykfC-aL0oim8aarX3">
    <mxGraphModel dx="3430" dy="1114" grid="1" gridSize="10" guides="1" tooltips="1" connect="1" arrows="1" fold="1" page="1" pageScale="1" pageWidth="850" pageHeight="1100" math="0" shadow="0">
      <root>
        <mxCell id="0" />
        <mxCell id="1" parent="0" />
        <mxCell id="D2elHLE1JnuMCZE4Ro4f-1" value="&lt;font style=&quot;font-size: 18px;&quot;&gt;4.0&lt;/font&gt;&lt;div&gt;&lt;font size=&quot;3&quot;&gt;upload paper&lt;/font&gt;&lt;/div&gt;" style="ellipse;whiteSpace=wrap;html=1;" vertex="1" parent="1">
          <mxGeometry x="200" y="520" width="120" height="100" as="geometry" />
        </mxCell>
        <mxCell id="D2elHLE1JnuMCZE4Ro4f-3" value="&lt;font style=&quot;font-size: 18px;&quot;&gt;3.0&lt;/font&gt;&lt;div&gt;&lt;font size=&quot;3&quot;&gt;upload&amp;nbsp;&lt;/font&gt;&lt;/div&gt;&lt;div&gt;&lt;font size=&quot;3&quot;&gt;material&lt;/font&gt;&lt;/div&gt;" style="ellipse;whiteSpace=wrap;html=1;" vertex="1" parent="1">
          <mxGeometry x="200" y="360" width="120" height="100" as="geometry" />
        </mxCell>
        <mxCell id="D2elHLE1JnuMCZE4Ro4f-4" value="&lt;font style=&quot;font-size: 18px;&quot;&gt;2.0&lt;/font&gt;&lt;div&gt;&lt;font size=&quot;3&quot;&gt;view student&lt;/font&gt;&lt;/div&gt;" style="ellipse;whiteSpace=wrap;html=1;" vertex="1" parent="1">
          <mxGeometry x="200" y="200" width="120" height="100" as="geometry" />
        </mxCell>
        <mxCell id="D2elHLE1JnuMCZE4Ro4f-5" value="&lt;font style=&quot;font-size: 18px;&quot;&gt;1.0&lt;/font&gt;&lt;div&gt;&lt;font size=&quot;3&quot;&gt;add student&lt;/font&gt;&lt;/div&gt;" style="ellipse;whiteSpace=wrap;html=1;" vertex="1" parent="1">
          <mxGeometry x="200" y="40" width="120" height="100" as="geometry" />
        </mxCell>
        <mxCell id="D2elHLE1JnuMCZE4Ro4f-6" value="&lt;font style=&quot;font-size: 18px;&quot;&gt;7.0&lt;/font&gt;&lt;div&gt;&lt;font size=&quot;3&quot;&gt;declare result&lt;/font&gt;&lt;/div&gt;" style="ellipse;whiteSpace=wrap;html=1;" vertex="1" parent="1">
          <mxGeometry x="200" y="680" width="120" height="100" as="geometry" />
        </mxCell>
        <mxCell id="D2elHLE1JnuMCZE4Ro4f-7" value="&lt;font style=&quot;font-size: 18px;&quot;&gt;8.0&lt;/font&gt;&lt;div&gt;&lt;font size=&quot;3&quot;&gt;show result&lt;/font&gt;&lt;/div&gt;" style="ellipse;whiteSpace=wrap;html=1;" vertex="1" parent="1">
          <mxGeometry x="640" y="680" width="120" height="100" as="geometry" />
        </mxCell>
        <mxCell id="D2elHLE1JnuMCZE4Ro4f-8" value="&lt;font style=&quot;font-size: 18px;&quot;&gt;6.0&lt;/font&gt;&lt;div&gt;&lt;font size=&quot;3&quot;&gt;give exam&lt;/font&gt;&lt;/div&gt;" style="ellipse;whiteSpace=wrap;html=1;" vertex="1" parent="1">
          <mxGeometry x="640" y="520" width="120" height="100" as="geometry" />
        </mxCell>
        <mxCell id="D2elHLE1JnuMCZE4Ro4f-9" value="&lt;font style=&quot;font-size: 18px;&quot;&gt;5.0&lt;/font&gt;&lt;div&gt;&lt;font size=&quot;3&quot;&gt;download&lt;/font&gt;&lt;/div&gt;&lt;div&gt;&lt;font size=&quot;3&quot;&gt;material&lt;/font&gt;&lt;/div&gt;" style="ellipse;whiteSpace=wrap;html=1;" vertex="1" parent="1">
          <mxGeometry x="640" y="360" width="120" height="100" as="geometry" />
        </mxCell>
        <mxCell id="D2elHLE1JnuMCZE4Ro4f-14" value="" style="group" vertex="1" connectable="0" parent="1">
          <mxGeometry x="400" y="800" width="160" height="40" as="geometry" />
        </mxCell>
        <mxCell id="D2elHLE1JnuMCZE4Ro4f-10" value="" style="endArrow=none;html=1;rounded=0;" edge="1" parent="D2elHLE1JnuMCZE4Ro4f-14">
          <mxGeometry width="50" height="50" relative="1" as="geometry">
            <mxPoint as="sourcePoint" />
            <mxPoint x="160" as="targetPoint" />
          </mxGeometry>
        </mxCell>
        <mxCell id="D2elHLE1JnuMCZE4Ro4f-11" value="" style="endArrow=none;html=1;rounded=0;" edge="1" parent="D2elHLE1JnuMCZE4Ro4f-14">
          <mxGeometry width="50" height="50" relative="1" as="geometry">
            <mxPoint y="40" as="sourcePoint" />
            <mxPoint x="160" y="40" as="targetPoint" />
          </mxGeometry>
        </mxCell>
        <mxCell id="D2elHLE1JnuMCZE4Ro4f-13" value="&lt;font style=&quot;font-size: 18px;&quot;&gt;Result&lt;/font&gt;" style="text;html=1;align=center;verticalAlign=middle;resizable=0;points=[];autosize=1;strokeColor=none;fillColor=none;" vertex="1" parent="D2elHLE1JnuMCZE4Ro4f-14">
          <mxGeometry x="43" width="70" height="40" as="geometry" />
        </mxCell>
        <mxCell id="D2elHLE1JnuMCZE4Ro4f-15" value="" style="group" vertex="1" connectable="0" parent="1">
          <mxGeometry x="400" y="460" width="160" height="40" as="geometry" />
        </mxCell>
        <mxCell id="D2elHLE1JnuMCZE4Ro4f-16" value="" style="endArrow=none;html=1;rounded=0;" edge="1" parent="D2elHLE1JnuMCZE4Ro4f-15">
          <mxGeometry width="50" height="50" relative="1" as="geometry">
            <mxPoint as="sourcePoint" />
            <mxPoint x="160" as="targetPoint" />
          </mxGeometry>
        </mxCell>
        <mxCell id="D2elHLE1JnuMCZE4Ro4f-17" value="" style="endArrow=none;html=1;rounded=0;" edge="1" parent="D2elHLE1JnuMCZE4Ro4f-15">
          <mxGeometry width="50" height="50" relative="1" as="geometry">
            <mxPoint y="40" as="sourcePoint" />
            <mxPoint x="160" y="40" as="targetPoint" />
          </mxGeometry>
        </mxCell>
        <mxCell id="D2elHLE1JnuMCZE4Ro4f-18" value="&lt;font style=&quot;font-size: 18px;&quot;&gt;Material&lt;/font&gt;" style="text;html=1;align=center;verticalAlign=middle;resizable=0;points=[];autosize=1;strokeColor=none;fillColor=none;" vertex="1" parent="D2elHLE1JnuMCZE4Ro4f-15">
          <mxGeometry x="33" width="90" height="40" as="geometry" />
        </mxCell>
        <mxCell id="D2elHLE1JnuMCZE4Ro4f-19" value="" style="group" vertex="1" connectable="0" parent="1">
          <mxGeometry x="400" y="620" width="160" height="40" as="geometry" />
        </mxCell>
        <mxCell id="D2elHLE1JnuMCZE4Ro4f-20" value="" style="endArrow=none;html=1;rounded=0;" edge="1" parent="D2elHLE1JnuMCZE4Ro4f-19">
          <mxGeometry width="50" height="50" relative="1" as="geometry">
            <mxPoint as="sourcePoint" />
            <mxPoint x="160" as="targetPoint" />
          </mxGeometry>
        </mxCell>
        <mxCell id="D2elHLE1JnuMCZE4Ro4f-21" value="" style="endArrow=none;html=1;rounded=0;" edge="1" parent="D2elHLE1JnuMCZE4Ro4f-19">
          <mxGeometry width="50" height="50" relative="1" as="geometry">
            <mxPoint y="40" as="sourcePoint" />
            <mxPoint x="160" y="40" as="targetPoint" />
          </mxGeometry>
        </mxCell>
        <mxCell id="D2elHLE1JnuMCZE4Ro4f-22" value="&lt;font style=&quot;font-size: 18px;&quot;&gt;Examination&lt;/font&gt;" style="text;html=1;align=center;verticalAlign=middle;resizable=0;points=[];autosize=1;strokeColor=none;fillColor=none;" vertex="1" parent="D2elHLE1JnuMCZE4Ro4f-19">
          <mxGeometry x="18" width="120" height="40" as="geometry" />
        </mxCell>
        <mxCell id="D2elHLE1JnuMCZE4Ro4f-30" value="" style="group" vertex="1" connectable="0" parent="1">
          <mxGeometry x="404" y="144" width="160" height="40" as="geometry" />
        </mxCell>
        <mxCell id="D2elHLE1JnuMCZE4Ro4f-31" value="" style="endArrow=none;html=1;rounded=0;" edge="1" parent="D2elHLE1JnuMCZE4Ro4f-30">
          <mxGeometry width="50" height="50" relative="1" as="geometry">
            <mxPoint as="sourcePoint" />
            <mxPoint x="160" as="targetPoint" />
          </mxGeometry>
        </mxCell>
        <mxCell id="D2elHLE1JnuMCZE4Ro4f-32" value="" style="endArrow=none;html=1;rounded=0;" edge="1" parent="D2elHLE1JnuMCZE4Ro4f-30">
          <mxGeometry width="50" height="50" relative="1" as="geometry">
            <mxPoint y="40" as="sourcePoint" />
            <mxPoint x="160" y="40" as="targetPoint" />
          </mxGeometry>
        </mxCell>
        <mxCell id="D2elHLE1JnuMCZE4Ro4f-33" value="&lt;font style=&quot;font-size: 18px;&quot;&gt;Student Details&lt;/font&gt;" style="text;html=1;align=center;verticalAlign=middle;resizable=0;points=[];autosize=1;strokeColor=none;fillColor=none;" vertex="1" parent="D2elHLE1JnuMCZE4Ro4f-30">
          <mxGeometry x="3" width="150" height="40" as="geometry" />
        </mxCell>
        <mxCell id="D2elHLE1JnuMCZE4Ro4f-34" value="" style="endArrow=classic;html=1;rounded=0;exitX=0.977;exitY=0.362;exitDx=0;exitDy=0;exitPerimeter=0;" edge="1" parent="1" target="D2elHLE1JnuMCZE4Ro4f-33">
          <mxGeometry width="50" height="50" relative="1" as="geometry">
            <mxPoint x="321" y="70" as="sourcePoint" />
            <mxPoint x="474" y="234" as="targetPoint" />
          </mxGeometry>
        </mxCell>
        <mxCell id="D2elHLE1JnuMCZE4Ro4f-35" value="" style="endArrow=classic;html=1;rounded=0;entryX=0.964;entryY=0.747;entryDx=0;entryDy=0;entryPerimeter=0;exitX=0.247;exitY=1.045;exitDx=0;exitDy=0;exitPerimeter=0;" edge="1" parent="1" source="D2elHLE1JnuMCZE4Ro4f-33">
          <mxGeometry width="50" height="50" relative="1" as="geometry">
            <mxPoint x="424" y="284" as="sourcePoint" />
            <mxPoint x="320" y="269" as="targetPoint" />
          </mxGeometry>
        </mxCell>
        <mxCell id="D2elHLE1JnuMCZE4Ro4f-36" value="" style="endArrow=classic;html=1;rounded=0;exitX=0.934;exitY=0.289;exitDx=0;exitDy=0;exitPerimeter=0;" edge="1" parent="1" source="D2elHLE1JnuMCZE4Ro4f-3">
          <mxGeometry width="50" height="50" relative="1" as="geometry">
            <mxPoint x="420" y="550" as="sourcePoint" />
            <mxPoint x="430" y="460" as="targetPoint" />
          </mxGeometry>
        </mxCell>
        <mxCell id="D2elHLE1JnuMCZE4Ro4f-37" value="" style="endArrow=classic;html=1;rounded=0;entryX=0.013;entryY=0.311;entryDx=0;entryDy=0;entryPerimeter=0;" edge="1" parent="1" target="D2elHLE1JnuMCZE4Ro4f-9">
          <mxGeometry width="50" height="50" relative="1" as="geometry">
            <mxPoint x="530" y="460" as="sourcePoint" />
            <mxPoint x="470" y="500" as="targetPoint" />
          </mxGeometry>
        </mxCell>
        <mxCell id="D2elHLE1JnuMCZE4Ro4f-38" value="" style="endArrow=classic;html=1;rounded=0;exitX=0.934;exitY=0.289;exitDx=0;exitDy=0;exitPerimeter=0;" edge="1" parent="1">
          <mxGeometry width="50" height="50" relative="1" as="geometry">
            <mxPoint x="319" y="549" as="sourcePoint" />
            <mxPoint x="437" y="620" as="targetPoint" />
          </mxGeometry>
        </mxCell>
        <mxCell id="D2elHLE1JnuMCZE4Ro4f-39" value="" style="endArrow=classic;html=1;rounded=0;entryX=0.083;entryY=0.2;entryDx=0;entryDy=0;entryPerimeter=0;" edge="1" parent="1" target="D2elHLE1JnuMCZE4Ro4f-8">
          <mxGeometry width="50" height="50" relative="1" as="geometry">
            <mxPoint x="537" y="620" as="sourcePoint" />
            <mxPoint x="649" y="551" as="targetPoint" />
          </mxGeometry>
        </mxCell>
        <mxCell id="D2elHLE1JnuMCZE4Ro4f-40" value="" style="endArrow=classic;html=1;rounded=0;exitX=0.934;exitY=0.289;exitDx=0;exitDy=0;exitPerimeter=0;" edge="1" parent="1">
          <mxGeometry width="50" height="50" relative="1" as="geometry">
            <mxPoint x="315" y="729" as="sourcePoint" />
            <mxPoint x="433" y="800" as="targetPoint" />
          </mxGeometry>
        </mxCell>
        <mxCell id="D2elHLE1JnuMCZE4Ro4f-41" value="" style="endArrow=classic;html=1;rounded=0;entryX=0;entryY=0.4;entryDx=0;entryDy=0;entryPerimeter=0;" edge="1" parent="1" target="D2elHLE1JnuMCZE4Ro4f-7">
          <mxGeometry width="50" height="50" relative="1" as="geometry">
            <mxPoint x="533" y="800" as="sourcePoint" />
            <mxPoint x="645" y="731" as="targetPoint" />
          </mxGeometry>
        </mxCell>
        <mxCell id="D2elHLE1JnuMCZE4Ro4f-42" value="&lt;font style=&quot;font-size: 14px;&quot;&gt;Material&lt;/font&gt;" style="text;html=1;align=center;verticalAlign=middle;resizable=0;points=[];autosize=1;strokeColor=none;fillColor=none;rotation=30;" vertex="1" parent="1">
          <mxGeometry x="334" y="395" width="70" height="30" as="geometry" />
        </mxCell>
        <mxCell id="D2elHLE1JnuMCZE4Ro4f-43" value="&lt;font style=&quot;font-size: 14px;&quot;&gt;Material&lt;/font&gt;" style="text;html=1;align=center;verticalAlign=middle;resizable=0;points=[];autosize=1;strokeColor=none;fillColor=none;rotation=-35;" vertex="1" parent="1">
          <mxGeometry x="540" y="405" width="70" height="30" as="geometry" />
        </mxCell>
        <mxCell id="D2elHLE1JnuMCZE4Ro4f-45" value="&lt;font style=&quot;font-size: 14px;&quot;&gt;result&lt;/font&gt;" style="text;html=1;align=center;verticalAlign=middle;resizable=0;points=[];autosize=1;strokeColor=none;fillColor=none;rotation=30;" vertex="1" parent="1">
          <mxGeometry x="339" y="732" width="60" height="30" as="geometry" />
        </mxCell>
        <mxCell id="D2elHLE1JnuMCZE4Ro4f-46" value="&lt;font style=&quot;font-size: 14px;&quot;&gt;Exam&lt;/font&gt;" style="text;html=1;align=center;verticalAlign=middle;resizable=0;points=[];autosize=1;strokeColor=none;fillColor=none;rotation=30;" vertex="1" parent="1">
          <mxGeometry x="355" y="559" width="60" height="30" as="geometry" />
        </mxCell>
        <mxCell id="D2elHLE1JnuMCZE4Ro4f-47" value="&lt;font style=&quot;font-size: 14px;&quot;&gt;resul&lt;/font&gt;" style="text;html=1;align=center;verticalAlign=middle;resizable=0;points=[];autosize=1;strokeColor=none;fillColor=none;rotation=-40;" vertex="1" parent="1">
          <mxGeometry x="550" y="740" width="50" height="30" as="geometry" />
        </mxCell>
        <mxCell id="D2elHLE1JnuMCZE4Ro4f-48" value="&lt;font style=&quot;font-size: 14px;&quot;&gt;MCQ&lt;/font&gt;" style="text;html=1;align=center;verticalAlign=middle;resizable=0;points=[];autosize=1;strokeColor=none;fillColor=none;rotation=-35;" vertex="1" parent="1">
          <mxGeometry x="555" y="555" width="60" height="30" as="geometry" />
        </mxCell>
        <mxCell id="D2elHLE1JnuMCZE4Ro4f-49" value="&lt;font style=&quot;font-size: 18px;&quot;&gt;Admin&lt;/font&gt;" style="rounded=0;whiteSpace=wrap;html=1;" vertex="1" parent="1">
          <mxGeometry x="-80" y="110" width="120" height="60" as="geometry" />
        </mxCell>
        <mxCell id="D2elHLE1JnuMCZE4Ro4f-50" value="&lt;font style=&quot;font-size: 18px;&quot;&gt;HOD&lt;/font&gt;" style="rounded=0;whiteSpace=wrap;html=1;" vertex="1" parent="1">
          <mxGeometry x="-80" y="690" width="120" height="60" as="geometry" />
        </mxCell>
        <mxCell id="D2elHLE1JnuMCZE4Ro4f-51" value="&lt;font style=&quot;font-size: 18px;&quot;&gt;Faculty&lt;/font&gt;" style="rounded=0;whiteSpace=wrap;html=1;" vertex="1" parent="1">
          <mxGeometry x="-80" y="450" width="120" height="60" as="geometry" />
        </mxCell>
        <mxCell id="D2elHLE1JnuMCZE4Ro4f-52" value="&lt;font style=&quot;font-size: 18px;&quot;&gt;Parents&lt;/font&gt;" style="rounded=0;whiteSpace=wrap;html=1;" vertex="1" parent="1">
          <mxGeometry x="-80" y="280" width="120" height="60" as="geometry" />
        </mxCell>
        <mxCell id="D2elHLE1JnuMCZE4Ro4f-53" value="" style="endArrow=classic;html=1;rounded=0;entryX=0;entryY=0;entryDx=0;entryDy=0;exitX=0.5;exitY=0;exitDx=0;exitDy=0;" edge="1" parent="1" source="D2elHLE1JnuMCZE4Ro4f-49" target="D2elHLE1JnuMCZE4Ro4f-5">
          <mxGeometry width="50" height="50" relative="1" as="geometry">
            <mxPoint x="350" y="250" as="sourcePoint" />
            <mxPoint x="400" y="200" as="targetPoint" />
            <Array as="points">
              <mxPoint x="-20" y="55" />
            </Array>
          </mxGeometry>
        </mxCell>
        <mxCell id="D2elHLE1JnuMCZE4Ro4f-54" value="" style="endArrow=classic;html=1;rounded=0;entryX=0.992;entryY=0.846;entryDx=0;entryDy=0;exitX=0.5;exitY=1;exitDx=0;exitDy=0;entryPerimeter=0;" edge="1" parent="1" source="D2elHLE1JnuMCZE4Ro4f-5" target="D2elHLE1JnuMCZE4Ro4f-49">
          <mxGeometry width="50" height="50" relative="1" as="geometry">
            <mxPoint x="350" y="250" as="sourcePoint" />
            <mxPoint x="400" y="200" as="targetPoint" />
            <Array as="points">
              <mxPoint x="260" y="160" />
            </Array>
          </mxGeometry>
        </mxCell>
        <mxCell id="D2elHLE1JnuMCZE4Ro4f-57" value="" style="endArrow=classic;html=1;rounded=0;entryX=0;entryY=0;entryDx=0;entryDy=0;exitX=0.5;exitY=0;exitDx=0;exitDy=0;" edge="1" parent="1">
          <mxGeometry width="50" height="50" relative="1" as="geometry">
            <mxPoint x="-30" y="277.5" as="sourcePoint" />
            <mxPoint x="207" y="222.5" as="targetPoint" />
            <Array as="points">
              <mxPoint x="-30" y="222.5" />
            </Array>
          </mxGeometry>
        </mxCell>
        <mxCell id="D2elHLE1JnuMCZE4Ro4f-58" value="" style="endArrow=classic;html=1;rounded=0;entryX=0.992;entryY=0.846;entryDx=0;entryDy=0;exitX=0.5;exitY=1;exitDx=0;exitDy=0;entryPerimeter=0;" edge="1" parent="1">
          <mxGeometry width="50" height="50" relative="1" as="geometry">
            <mxPoint x="261" y="299.5" as="sourcePoint" />
            <mxPoint x="40" y="320.5" as="targetPoint" />
            <Array as="points">
              <mxPoint x="261" y="319.5" />
            </Array>
          </mxGeometry>
        </mxCell>
        <mxCell id="D2elHLE1JnuMCZE4Ro4f-59" value="" style="endArrow=classic;html=1;rounded=0;entryX=0;entryY=0;entryDx=0;entryDy=0;exitX=0.5;exitY=0;exitDx=0;exitDy=0;" edge="1" parent="1">
          <mxGeometry width="50" height="50" relative="1" as="geometry">
            <mxPoint x="-30" y="450" as="sourcePoint" />
            <mxPoint x="207" y="395" as="targetPoint" />
            <Array as="points">
              <mxPoint x="-30" y="395" />
            </Array>
          </mxGeometry>
        </mxCell>
        <mxCell id="D2elHLE1JnuMCZE4Ro4f-60" value="" style="endArrow=classic;html=1;rounded=0;entryX=0.992;entryY=0.846;entryDx=0;entryDy=0;exitX=0.5;exitY=1;exitDx=0;exitDy=0;entryPerimeter=0;" edge="1" parent="1">
          <mxGeometry width="50" height="50" relative="1" as="geometry">
            <mxPoint x="261" y="460" as="sourcePoint" />
            <mxPoint x="40" y="481" as="targetPoint" />
            <Array as="points">
              <mxPoint x="261" y="480" />
            </Array>
          </mxGeometry>
        </mxCell>
        <mxCell id="D2elHLE1JnuMCZE4Ro4f-61" value="" style="endArrow=classic;html=1;rounded=0;entryX=-0.003;entryY=0.582;entryDx=0;entryDy=0;exitX=0.413;exitY=1.011;exitDx=0;exitDy=0;exitPerimeter=0;entryPerimeter=0;" edge="1" parent="1" source="D2elHLE1JnuMCZE4Ro4f-51" target="D2elHLE1JnuMCZE4Ro4f-1">
          <mxGeometry width="50" height="50" relative="1" as="geometry">
            <mxPoint x="-32.59999999999991" y="510.00000000000006" as="sourcePoint" />
            <mxPoint x="200" y="559.3" as="targetPoint" />
            <Array as="points">
              <mxPoint x="-30" y="580.3" />
            </Array>
          </mxGeometry>
        </mxCell>
        <mxCell id="D2elHLE1JnuMCZE4Ro4f-63" value="" style="endArrow=classic;html=1;rounded=0;entryX=0.5;entryY=1;entryDx=0;entryDy=0;exitX=0.203;exitY=0.903;exitDx=0;exitDy=0;exitPerimeter=0;" edge="1" parent="1" source="D2elHLE1JnuMCZE4Ro4f-6" target="D2elHLE1JnuMCZE4Ro4f-50">
          <mxGeometry width="50" height="50" relative="1" as="geometry">
            <mxPoint x="220" y="790" as="sourcePoint" />
            <mxPoint x="-21" y="791" as="targetPoint" />
            <Array as="points">
              <mxPoint x="220" y="770" />
              <mxPoint x="-20" y="770" />
            </Array>
          </mxGeometry>
        </mxCell>
        <mxCell id="D2elHLE1JnuMCZE4Ro4f-64" value="" style="endArrow=classic;html=1;rounded=0;exitX=1;exitY=0.5;exitDx=0;exitDy=0;entryX=-0.01;entryY=0.405;entryDx=0;entryDy=0;entryPerimeter=0;" edge="1" parent="1" source="D2elHLE1JnuMCZE4Ro4f-50" target="D2elHLE1JnuMCZE4Ro4f-6">
          <mxGeometry width="50" height="50" relative="1" as="geometry">
            <mxPoint x="130" y="730" as="sourcePoint" />
            <mxPoint x="180" y="680" as="targetPoint" />
          </mxGeometry>
        </mxCell>
        <mxCell id="D2elHLE1JnuMCZE4Ro4f-65" value="&lt;font style=&quot;font-size: 18px;&quot;&gt;Student&lt;/font&gt;" style="rounded=0;whiteSpace=wrap;html=1;" vertex="1" parent="1">
          <mxGeometry x="950" y="529" width="120" height="60" as="geometry" />
        </mxCell>
        <mxCell id="D2elHLE1JnuMCZE4Ro4f-66" value="" style="endArrow=classic;html=1;rounded=0;entryX=1.027;entryY=0.41;entryDx=0;entryDy=0;entryPerimeter=0;exitX=0;exitY=0.5;exitDx=0;exitDy=0;" edge="1" parent="1" source="D2elHLE1JnuMCZE4Ro4f-65" target="D2elHLE1JnuMCZE4Ro4f-8">
          <mxGeometry width="50" height="50" relative="1" as="geometry">
            <mxPoint x="730" y="660" as="sourcePoint" />
            <mxPoint x="780" y="610" as="targetPoint" />
          </mxGeometry>
        </mxCell>
        <mxCell id="D2elHLE1JnuMCZE4Ro4f-67" value="" style="endArrow=classic;html=1;rounded=0;exitX=0.925;exitY=0.811;exitDx=0;exitDy=0;exitPerimeter=0;entryX=0.75;entryY=1;entryDx=0;entryDy=0;" edge="1" parent="1" source="D2elHLE1JnuMCZE4Ro4f-7" target="D2elHLE1JnuMCZE4Ro4f-65">
          <mxGeometry width="50" height="50" relative="1" as="geometry">
            <mxPoint x="730" y="660" as="sourcePoint" />
            <mxPoint x="1020" y="590" as="targetPoint" />
            <Array as="points">
              <mxPoint x="1040" y="760" />
            </Array>
          </mxGeometry>
        </mxCell>
        <mxCell id="D2elHLE1JnuMCZE4Ro4f-68" value="" style="endArrow=classic;html=1;rounded=0;entryX=0.913;entryY=0.197;entryDx=0;entryDy=0;exitX=0.75;exitY=0;exitDx=0;exitDy=0;entryPerimeter=0;" edge="1" parent="1" source="D2elHLE1JnuMCZE4Ro4f-65" target="D2elHLE1JnuMCZE4Ro4f-9">
          <mxGeometry width="50" height="50" relative="1" as="geometry">
            <mxPoint x="950" y="670" as="sourcePoint" />
            <mxPoint x="1000" y="620" as="targetPoint" />
            <Array as="points">
              <mxPoint x="1040" y="380" />
            </Array>
          </mxGeometry>
        </mxCell>
        <mxCell id="D2elHLE1JnuMCZE4Ro4f-69" value="" style="endArrow=classic;html=1;rounded=0;exitX=0.968;exitY=0.668;exitDx=0;exitDy=0;exitPerimeter=0;entryX=0.25;entryY=0;entryDx=0;entryDy=0;" edge="1" parent="1" source="D2elHLE1JnuMCZE4Ro4f-9" target="D2elHLE1JnuMCZE4Ro4f-65">
          <mxGeometry width="50" height="50" relative="1" as="geometry">
            <mxPoint x="850" y="620" as="sourcePoint" />
            <mxPoint x="900" y="570" as="targetPoint" />
            <Array as="points">
              <mxPoint x="980" y="427" />
            </Array>
          </mxGeometry>
        </mxCell>
        <mxCell id="D2elHLE1JnuMCZE4Ro4f-70" value="" style="endArrow=classic;html=1;rounded=0;exitX=0.965;exitY=0.306;exitDx=0;exitDy=0;exitPerimeter=0;" edge="1" parent="1" source="D2elHLE1JnuMCZE4Ro4f-7">
          <mxGeometry width="50" height="50" relative="1" as="geometry">
            <mxPoint x="980" y="650" as="sourcePoint" />
            <mxPoint x="990" y="590" as="targetPoint" />
            <Array as="points">
              <mxPoint x="990" y="710" />
            </Array>
          </mxGeometry>
        </mxCell>
        <mxCell id="D2elHLE1JnuMCZE4Ro4f-71" value="&lt;font style=&quot;font-size: 18px;&quot;&gt;Add student&lt;/font&gt;" style="text;html=1;align=center;verticalAlign=middle;whiteSpace=wrap;rounded=0;" vertex="1" parent="1">
          <mxGeometry x="-10" y="30" width="180" height="30" as="geometry" />
        </mxCell>
        <mxCell id="D2elHLE1JnuMCZE4Ro4f-72" value="&lt;font style=&quot;font-size: 18px;&quot;&gt;Stduent added&lt;/font&gt;" style="text;html=1;align=center;verticalAlign=middle;whiteSpace=wrap;rounded=0;" vertex="1" parent="1">
          <mxGeometry x="50" y="135" width="180" height="30" as="geometry" />
        </mxCell>
        <mxCell id="D2elHLE1JnuMCZE4Ro4f-73" value="&lt;font style=&quot;font-size: 18px;&quot;&gt;request to view details&lt;/font&gt;" style="text;html=1;align=center;verticalAlign=middle;whiteSpace=wrap;rounded=0;" vertex="1" parent="1">
          <mxGeometry x="-10" y="196" width="200" height="30" as="geometry" />
        </mxCell>
        <mxCell id="D2elHLE1JnuMCZE4Ro4f-74" value="&lt;font style=&quot;font-size: 18px;&quot;&gt;display details&lt;/font&gt;" style="text;html=1;align=center;verticalAlign=middle;whiteSpace=wrap;rounded=0;" vertex="1" parent="1">
          <mxGeometry x="40" y="290" width="200" height="30" as="geometry" />
        </mxCell>
        <mxCell id="D2elHLE1JnuMCZE4Ro4f-75" value="&lt;font style=&quot;font-size: 18px;&quot;&gt;upload material&lt;/font&gt;&lt;span style=&quot;color: rgba(0, 0, 0, 0); font-family: monospace; font-size: 0px; text-align: start; text-wrap: nowrap;&quot;&gt;%3CmxGraphModel%3E%3Croot%3E%3CmxCell%20id%3D%220%22%2F%3E%3CmxCell%20id%3D%221%22%20parent%3D%220%22%2F%3E%3CmxCell%20id%3D%222%22%20value%3D%22%26lt%3Bfont%20style%3D%26quot%3Bfont-size%3A%2018px%3B%26quot%3B%26gt%3Bdisplay%20details%26lt%3B%2Ffont%26gt%3B%22%20style%3D%22text%3Bhtml%3D1%3Balign%3Dcenter%3BverticalAlign%3Dmiddle%3BwhiteSpace%3Dwrap%3Brounded%3D0%3B%22%20vertex%3D%221%22%20parent%3D%221%22%3E%3CmxGeometry%20x%3D%2240%22%20y%3D%22290%22%20width%3D%22200%22%20height%3D%2230%22%20as%3D%22geometry%22%2F%3E%3C%2FmxCell%3E%3C%2Froot%3E%3C%2FmxGraphModel%3E&lt;/span&gt;" style="text;html=1;align=center;verticalAlign=middle;whiteSpace=wrap;rounded=0;" vertex="1" parent="1">
          <mxGeometry x="-20" y="365" width="200" height="30" as="geometry" />
        </mxCell>
        <mxCell id="D2elHLE1JnuMCZE4Ro4f-76" value="&lt;font style=&quot;font-size: 14px;&quot;&gt;uploaded succeddfully&lt;/font&gt;" style="text;html=1;align=center;verticalAlign=middle;whiteSpace=wrap;rounded=0;" vertex="1" parent="1">
          <mxGeometry x="40" y="450" width="200" height="30" as="geometry" />
        </mxCell>
        <mxCell id="D2elHLE1JnuMCZE4Ro4f-77" value="&lt;font style=&quot;font-size: 18px;&quot;&gt;upload MCQ for exam&lt;/font&gt;&lt;span style=&quot;color: rgba(0, 0, 0, 0); font-family: monospace; font-size: 0px; text-align: start; text-wrap: nowrap;&quot;&gt;%3CmxGraphModel%3E%3Croot%3E%3CmxCell%20id%3D%220%22%2F%3E%3CmxCell%20id%3D%221%22%20parent%3D%220%22%2F%3E%3CmxCell%20id%3D%222%22%20value%3D%22%26lt%3Bfont%20style%3D%26quot%3Bfont-size%3A%2018px%3B%26quot%3B%26gt%3Bdisplay%20details%26lt%3B%2Ffont%26gt%3B%22%20style%3D%22text%3Bhtml%3D1%3Balign%3Dcenter%3BverticalAlign%3Dmiddle%3BwhiteSpace%3Dwrap%3Brounded%3D0%3B%22%20vertex%3D%221%22%20parent%3D%221%22%3E%3CmxGeometry%20x%3D%2240%22%20y%3D%22290%22%20width%3D%22200%22%20height%3D%2230%22%20as%3D%22geometry%22%2F%3E%3C%2FmxCell%3E%3C%2Froot%3E%3C%2FmxGraphModel%3E&lt;/span&gt;" style="text;html=1;align=center;verticalAlign=middle;whiteSpace=wrap;rounded=0;" vertex="1" parent="1">
          <mxGeometry x="-10" y="550" width="200" height="30" as="geometry" />
        </mxCell>
        <mxCell id="D2elHLE1JnuMCZE4Ro4f-78" value="&lt;font style=&quot;font-size: 18px;&quot;&gt;upload exam result&lt;/font&gt;&lt;span style=&quot;color: rgba(0, 0, 0, 0); font-family: monospace; text-align: start; text-wrap: nowrap; font-size: 0px;&quot;&gt;%3CmxGraphModel%3E%3Croot%3E%3CmxCell%20id%3D%220%22%2F%3E%3CmxCell%20id%3D%221%22%20parent%3D%220%22%2F%3E%3CmxCell%20id%3D%222%22%20value%3D%22%26lt%3Bfont%20style%3D%26quot%3Bfont-size%3A%2018px%3B%26quot%3B%26gt%3Bdisplay%20details%26lt%3B%2Ffont%26gt%3B%22%20style%3D%22text%3Bhtml%3D1%3Balign%3Dcenter%3BverticalAlign%3Dmiddle%3BwhiteSpace%3Dwrap%3Brounded%3D0%3B%22%20vertex%3D%221%22%20parent%3D%221%22%3E%3CmxGeometry%20x%3D%2240%22%20y%3D%22290%22%20width%3D%22200%22%20height%3D%2230%22%20as%3D%22geometry%22%2F%3E%3C%2FmxCell%3E%3C%2Froot%3E%3C%2FmxGraphModel%3E&lt;/span&gt;" style="text;html=1;align=center;verticalAlign=middle;whiteSpace=wrap;rounded=0;" vertex="1" parent="1">
          <mxGeometry x="30" y="690" width="180" height="30" as="geometry" />
        </mxCell>
        <mxCell id="D2elHLE1JnuMCZE4Ro4f-79" value="&lt;span style=&quot;font-size: 18px;&quot;&gt;file uploaded successfully&lt;/span&gt;" style="text;html=1;align=center;verticalAlign=middle;whiteSpace=wrap;rounded=0;" vertex="1" parent="1">
          <mxGeometry x="-10" y="770" width="210" height="30" as="geometry" />
        </mxCell>
        <mxCell id="D2elHLE1JnuMCZE4Ro4f-80" value="&lt;span style=&quot;font-size: 18px;&quot;&gt;display result&lt;/span&gt;" style="text;html=1;align=center;verticalAlign=middle;whiteSpace=wrap;rounded=0;" vertex="1" parent="1">
          <mxGeometry x="850" y="732" width="180" height="30" as="geometry" />
        </mxCell>
        <mxCell id="D2elHLE1JnuMCZE4Ro4f-81" value="&lt;span style=&quot;font-size: 18px;&quot;&gt;requested to show result&lt;/span&gt;" style="text;html=1;align=center;verticalAlign=middle;whiteSpace=wrap;rounded=0;" vertex="1" parent="1">
          <mxGeometry x="790" y="670" width="180" height="30" as="geometry" />
        </mxCell>
        <mxCell id="D2elHLE1JnuMCZE4Ro4f-82" value="&lt;span style=&quot;font-size: 18px;&quot;&gt;attend exam&lt;/span&gt;&lt;span style=&quot;color: rgba(0, 0, 0, 0); font-family: monospace; font-size: 0px; text-align: start; text-wrap: nowrap;&quot;&gt;%3CmxGraphModel%3E%3Croot%3E%3CmxCell%20id%3D%220%22%2F%3E%3CmxCell%20id%3D%221%22%20parent%3D%220%22%2F%3E%3CmxCell%20id%3D%222%22%20value%3D%22%26lt%3Bspan%20style%3D%26quot%3Bfont-size%3A%2018px%3B%26quot%3B%26gt%3Bdisplay%20result%26lt%3B%2Fspan%26gt%3B%22%20style%3D%22text%3Bhtml%3D1%3Balign%3Dcenter%3BverticalAlign%3Dmiddle%3BwhiteSpace%3Dwrap%3Brounded%3D0%3B%22%20vertex%3D%221%22%20parent%3D%221%22%3E%3CmxGeometry%20x%3D%22850%22%20y%3D%22732%22%20width%3D%22180%22%20height%3D%2230%22%20as%3D%22geometry%22%2F%3E%3C%2FmxCell%3E%3C%2Froot%3E%3C%2FmxGraphModel%3E&lt;/span&gt;" style="text;html=1;align=center;verticalAlign=middle;whiteSpace=wrap;rounded=0;" vertex="1" parent="1">
          <mxGeometry x="770" y="529" width="180" height="30" as="geometry" />
        </mxCell>
        <mxCell id="D2elHLE1JnuMCZE4Ro4f-83" value="&lt;span style=&quot;font-size: 18px;&quot;&gt;access granted&lt;/span&gt;" style="text;html=1;align=center;verticalAlign=middle;whiteSpace=wrap;rounded=0;" vertex="1" parent="1">
          <mxGeometry x="790" y="430" width="180" height="30" as="geometry" />
        </mxCell>
        <mxCell id="D2elHLE1JnuMCZE4Ro4f-84" value="&lt;span style=&quot;font-size: 18px;&quot;&gt;requested to download result&lt;/span&gt;" style="text;html=1;align=center;verticalAlign=middle;whiteSpace=wrap;rounded=0;" vertex="1" parent="1">
          <mxGeometry x="830" y="340" width="180" height="30" as="geometry" />
        </mxCell>
        <mxCell id="D2elHLE1JnuMCZE4Ro4f-85" value="" style="swimlane;startSize=0;" vertex="1" parent="1">
          <mxGeometry x="-120" width="1240" height="840" as="geometry" />
        </mxCell>
      </root>
    </mxGraphModel>
  </diagram>
</mxfile>
